<svg xmlns="http://www.w3.org/2000/svg" viewBox="0 0 800 400" style="background-color: #0f172a; font-family: system-ui, sans-serif; border-radius: 12px;">
        <text x="400" y="32" fill="#f8fafc" font-size="17" font-weight="bold" text-anchor="middle">Valor del Cliente en 10 Meses (LTV) vs Costo Captación (CAC) - Año 2025</text>
        <line x1="60" y1="340" x2="740" y2="340" stroke="#334155" stroke-width="1.5"/>
    <rect x="82.66666666666667" y="316.29138117562206" width="26" height="23.70861882437793" fill="#fbbf24" rx="4"/><text x="95.66666666666667" y="310.29138117562206" fill="#fbbf24" font-size="10" font-weight="bold" text-anchor="middle">RD$1761</text><rect x="112.66666666666667" y="116" width="26" height="224" fill="#10b981" rx="4"/><text x="125.66666666666667" y="110" fill="#10b981" font-size="10" font-weight="bold" text-anchor="middle">RD$17k</text><text x="110.66666666666667" y="360" fill="#e2e8f0" font-size="11" font-weight="600" text-anchor="middle">Piantini</text><text x="110.66666666666667" y="376" fill="#38bdf8" font-size="10" text-anchor="middle">Retorno: 9.4x</text><rect x="218.66666666666666" y="318.6339704291381" width="26" height="21.366029570861883" fill="#fbbf24" rx="4"/><text x="231.66666666666666" y="312.6339704291381" fill="#fbbf24" font-size="10" font-weight="bold" text-anchor="middle">RD$1587</text><rect x="248.66666666666666" y="136.88135593220338" width="26" height="203.11864406779662" fill="#10b981" rx="4"/><text x="261.66666666666663" y="130.88135593220338" fill="#10b981" font-size="10" font-weight="bold" text-anchor="middle">RD$15k</text><text x="246.66666666666666" y="360" fill="#e2e8f0" font-size="11" font-weight="600" text-anchor="middle">Los Jardines</text><text x="246.66666666666666" y="376" fill="#38bdf8" font-size="10" text-anchor="middle">Retorno: 9.5x</text><rect x="354.6666666666667" y="319.0917177545378" width="26" height="20.908282245462193" fill="#fbbf24" rx="4"/><text x="367.6666666666667" y="313.0917177545378" fill="#fbbf24" font-size="10" font-weight="bold" text-anchor="middle">RD$1553</text><rect x="384.6666666666667" y="172.39716312056737" width="26" height="167.60283687943263" fill="#10b981" rx="4"/><text x="397.6666666666667" y="166.39716312056737" fill="#10b981" font-size="10" font-weight="bold" text-anchor="middle">RD$12k</text><text x="382.6666666666667" y="360" fill="#e2e8f0" font-size="11" font-weight="600" text-anchor="middle">Bávaro</text><text x="382.6666666666667" y="376" fill="#38bdf8" font-size="10" text-anchor="middle">Retorno: 8.0x</text><rect x="490.6666666666667" y="320.45149657410747" width="26" height="19.548503425892534" fill="#fbbf24" rx="4"/><text x="503.6666666666667" y="314.45149657410747" fill="#fbbf24" font-size="10" font-weight="bold" text-anchor="middle">RD$1452</text><rect x="520.6666666666667" y="162.0978482990744" width="26" height="177.9021517009256" fill="#10b981" rx="4"/><text x="533.6666666666667" y="156.0978482990744" fill="#10b981" font-size="10" font-weight="bold" text-anchor="middle">RD$13k</text><text x="518.6666666666667" y="360" fill="#e2e8f0" font-size="11" font-weight="600" text-anchor="middle">Zona Oriental</text><text x="518.6666666666667" y="376" fill="#38bdf8" font-size="10" text-anchor="middle">Retorno: 9.1x</text><rect x="626.6666666666666" y="318.4320230796971" width="26" height="21.56797692030292" fill="#fbbf24" rx="4"/><text x="639.6666666666666" y="312.4320230796971" fill="#fbbf24" font-size="10" font-weight="bold" text-anchor="middle">RD$1602</text><rect x="656.6666666666666" y="145.18812357254475" width="26" height="194.81187642745525" fill="#10b981" rx="4"/><text x="669.6666666666666" y="139.18812357254475" fill="#10b981" font-size="10" font-weight="bold" text-anchor="middle">RD$14k</text><text x="654.6666666666666" y="360" fill="#e2e8f0" font-size="11" font-weight="600" text-anchor="middle">Puerto Plata</text><text x="654.6666666666666" y="376" fill="#38bdf8" font-size="10" text-anchor="middle">Retorno: 9.0x</text>
        <rect x="230" y="382" width="14" height="14" fill="#fbbf24" rx="2"/>
        <text x="250" y="394" fill="#cbd5e1" font-size="12">Costo Captación (CAC)</text>
        <rect x="440" y="382" width="14" height="14" fill="#10b981" rx="2"/>
        <text x="460" y="394" fill="#cbd5e1" font-size="12">Valor del Cliente (LTV)</text>
    </svg>